<svg xmlns="http://www.w3.org/2000/svg" viewBox="0 0 128 128" role="img" aria-label="Blood, Sweat & Tokens">
  <g transform="translate(11 11) scale(0.85)">
    <path d="M39.2451 0C40.3819 1.47236 43.4727 7.88817 44.3867 9.91602C45.2107 11.7498 46.1204 13.5922 47.0967 15.4434C46.1776 17.0542 45.1954 18.7372 44.123 20.5537C38.0443 30.8413 28.5933 44.0702 22.585 57.3457C16.4292 70.9469 12.9483 86.3719 19.6045 102.022C23.5557 111.319 30.4218 119.059 39.1865 123.939C34.2162 123.687 29.3106 122.648 24.6611 120.854C14.9271 117.018 7.23225 109.34 3.125 99.6748C-8.29396 72.8259 14.2933 45.5994 27.2891 23.6055C32.3045 15.1094 35.5435 9.2828 39.2451 0Z" fill="#EE392A" />
    <path d="M84.2451 0C85.3819 1.47236 88.4723 7.88813 89.3863 9.91598C99.2974 31.9739 121.559 55.2959 124.175 79.6854C125.363 90.6313 122.062 101.591 115.024 110.064C107.563 119.135 97.4694 122.925 86.0959 124C80.4749 123.943 74.9052 122.877 69.6612 120.854C59.9272 117.018 52.2325 109.34 48.1252 99.675C36.7061 72.826 59.2931 45.5997 72.2889 23.6056C77.3045 15.1095 80.5435 9.28287 84.2451 0Z" fill="#C89A3C" />
    <path d="M61.2451 0C62.3819 1.47236 65.4727 7.88817 66.3867 9.91602C67.3448 12.0483 68.4191 14.1919 69.5791 16.3477C68.8103 17.683 67.9965 19.0741 67.123 20.5537C61.0443 30.8412 51.5933 44.0702 45.585 57.3457C39.4292 70.9469 35.9484 86.372 42.6045 102.022C46.5667 111.345 53.4599 119.103 62.2598 123.981C56.9231 123.832 51.6449 122.777 46.6611 120.854C36.9272 117.018 29.2322 109.34 25.125 99.6748C13.7061 72.8259 36.2933 45.5994 49.2891 23.6055C54.3045 15.1094 57.5435 9.2828 61.2451 0Z" fill="#4A6D80" />
  </g>
</svg>
